<?xml version="1.0" encoding="utf-8"?>
<!-- Generator: Adobe Illustrator 27.3.1, SVG Export Plug-In . SVG Version: 6.00 Build 0)  -->
<svg version="1.1" id="Layer_1" xmlns:serif="http://www.serif.com/"
	 xmlns="http://www.w3.org/2000/svg" xmlns:xlink="http://www.w3.org/1999/xlink" x="0px" y="0px" viewBox="0 0 595.3 841.9"
	 style="enable-background:new 0 0 595.3 841.9;" xml:space="preserve">
<style type="text/css">
	.st0{fill-rule:evenodd;clip-rule:evenodd;fill:#88B8FD;}
</style>
<path class="st0" d="M522.5,123.3c40.1,0,72.7,32.6,72.7,72.7v449.8c0,40.1-32.6,72.7-72.7,72.7H72.7C32.6,718.6,0,686,0,645.9V196
	c0-40.1,32.6-72.7,72.7-72.7H522.5L522.5,123.3z M186.6,615.4V353H99.3v262.4H186.6z M501.1,615.4V464.9
	c0-80.6-43-118.1-100.4-118.1c-46.3,0-67,25.5-78.6,43.3V353h-87.2c1.2,24.6,0,262.4,0,262.4h87.2V468.9c0-7.8,0.6-15.7,2.9-21.3
	c6.3-15.7,20.7-31.9,44.8-31.9c31.5,0,44.2,24.1,44.2,59.3v140.4H501.1L501.1,615.4z M143.5,226.5c-29.8,0-49.4,19.6-49.4,45.3
	c0,25.2,18.9,45.3,48.2,45.3h0.6c30.4,0,49.4-20.2,49.4-45.3C191.7,246.1,173.4,226.5,143.5,226.5z"/>
</svg>
