<?xml version="1.0" encoding="utf-8"?>
<!-- Generator: Adobe Illustrator 27.3.1, SVG Export Plug-In . SVG Version: 6.00 Build 0)  -->
<svg version="1.1" id="Layer_1" xmlns:serif="http://www.serif.com/"
	 xmlns="http://www.w3.org/2000/svg" xmlns:xlink="http://www.w3.org/1999/xlink" x="0px" y="0px" viewBox="0 0 595.3 841.9"
	 style="enable-background:new 0 0 595.3 841.9;" xml:space="preserve">
<style type="text/css">
	.st0{fill-rule:evenodd;clip-rule:evenodd;fill:#88B8FD;}
</style>
<path class="st0" d="M522.6,123.3c40.1,0,72.7,32.6,72.7,72.7v449.8c0,40.1-32.6,72.7-72.7,72.7H72.7C32.6,718.5,0,685.9,0,645.8
	V196c0-40.1,32.6-72.7,72.7-72.7H522.6L522.6,123.3z M227.3,616.9c158,0,244.4-131,244.4-244.4c0-3.7,0-7.5-0.2-11
	c16.8-12.1,31.4-27.3,42.9-44.5c-15.3,6.8-31.9,11.4-49.3,13.6c17.8-10.7,31.4-27.4,37.8-47.6c-16.6,9.8-34.9,16.9-54.5,20.8
	c-15.7-16.8-38-27.1-62.7-27.1c-47.4,0-85.9,38.5-85.9,85.9c0,6.8,0.7,13.3,2.3,19.6c-71.4-3.6-134.7-37.8-177.1-89.8
	c-7.3,12.7-11.6,27.4-11.6,43.1c0,29.8,15.2,56.1,38.3,71.4c-14.1-0.3-27.3-4.3-38.9-10.7v1c0,41.7,29.6,76.3,69,84.3
	c-7.1,2-14.8,3-22.7,3c-5.5,0-10.9-0.6-16.2-1.6c10.9,34.2,42.6,59,80.2,59.7c-29.4,23-66.5,36.7-106.7,36.7
	c-6.9,0-13.7-0.3-20.5-1.3C133.6,602.6,178.9,616.9,227.3,616.9L227.3,616.9z"/>
</svg>
